<svg width="240" height="340" viewBox="0 0 240 340" fill="none" xmlns="http://www.w3.org/2000/svg">
<path d="M120 0C105.888 0 92.398 2.661 80 7.503C39.027 23.505 10 63.361 10 110V150H80L230 140V110C230 49.249 180.751 0 120 0Z" fill="#50412E"/>
<path d="M141 240H120H99C60.893 240 30 270.893 30 309V340H120H210V309C210 270.893 179.107 240 141 240Z" fill="#FFDA44"/>
<path d="M120 240H99C60.893 240 30 270.893 30 309V340H120V240Z" fill="#FF9811"/>
<path d="M150 240C150 256.568 136.568 270 120 270C103.432 270 90 256.568 90 240V210C90 193.432 103.432 180 120 180C136.568 180 150 193.432 150 210V240Z" fill="#FFEACF"/>
<path d="M80 7.50293V150H10V110C10 63.3609 39.027 23.5049 80 7.50293Z" fill="black"/>
<path d="M120 240C175.228 240 220 192.99 220 135C220 77.0101 175.228 30 120 30C64.7715 30 20 77.0101 20 135C20 192.99 64.7715 240 120 240Z" fill="#FFEACF"/>
<path d="M120 205.858C102.58 205.858 86.42 196.422 77.824 181.231C77.144 180.029 77.567 178.504 78.768 177.824C79.968 177.144 81.495 177.566 82.175 178.769C89.885 192.394 104.378 200.858 119.999 200.858C135.621 200.858 150.114 192.394 157.823 178.769C158.503 177.567 160.027 177.145 161.23 177.824C162.431 178.504 162.854 180.029 162.174 181.231C153.581 196.422 137.421 205.858 120 205.858Z" fill="#E8667D"/>
<path d="M85 170C93.2843 170 100 165.523 100 160C100 154.477 93.2843 150 85 150C76.7157 150 70 154.477 70 160C70 165.523 76.7157 170 85 170Z" fill="#FFB9A7"/>
<path d="M85 145C89.1421 145 92.5 141.642 92.5 137.5C92.5 133.358 89.1421 130 85 130C80.8579 130 77.5 133.358 77.5 137.5C77.5 141.642 80.8579 145 85 145Z" fill="#50412E"/>
<path d="M155 170C163.284 170 170 165.523 170 160C170 154.477 163.284 150 155 150C146.716 150 140 154.477 140 160C140 165.523 146.716 170 155 170Z" fill="#FFB9A7"/>
<path d="M155 145C159.142 145 162.5 141.642 162.5 137.5C162.5 133.358 159.142 130 155 130C150.858 130 147.5 133.358 147.5 137.5C147.5 141.642 150.858 145 155 145Z" fill="#50412E"/>
<path d="M120 228C97.472 228 75.916 223.642 56.041 215.706C73.376 230.872 95.67 240 120 240C144.33 240 166.624 230.872 183.959 215.706C164.084 223.642 142.528 228 120 228Z" fill="#FFD6A0"/>
<path d="M20 170C31.0457 170 40 161.046 40 150C40 138.954 31.0457 130 20 130C8.9543 130 0 138.954 0 150C0 161.046 8.9543 170 20 170Z" fill="#FFEACF"/>
<path d="M220 170C231.046 170 240 161.046 240 150C240 138.954 231.046 130 220 130C208.954 130 200 138.954 200 150C200 161.046 208.954 170 220 170Z" fill="#FFEACF"/>
<path d="M220 110.001L210 60L151.5 7.5L80 20L70 40L80 50C86.578 73.022 101.809 88.473 120 98.842V84.166C120 84.166 130.223 102.282 155.796 112.658C184.071 124.131 214.333 119.971 214.333 119.971L220 110.001Z" fill="#50412E"/>
<path d="M40 110C40 110 80 90 80 50V10C80 10 39.46 55.811 30 70C21.002 83.497 20 130 20 130H40V110Z" fill="black"/>
<path d="M20 150C31.046 150 40 141.046 40 130C40 118.954 31.046 110 20 110V150Z" fill="black"/>
<path d="M220 150C208.954 150 200 141.046 200 130C200 118.954 208.954 110 220 110V150Z" fill="#50412E"/>
</svg>
